<svg xmlns="http://www.w3.org/2000/svg" width="30.966" height="27.787" viewBox="0 0 30.966 27.787">
  <path id="Icon_awesome-leaf" data-name="Icon awesome-leaf" d="M27.213.483A.775.775,0,0,0,25.8.423a8.543,8.543,0,0,1-7.468,4.359H14.349a9.568,9.568,0,0,0-9.566,9.566,9.851,9.851,0,0,0,.075,1.021,23.836,23.836,0,0,1,14.274-4.21.8.8,0,0,1,0,1.594C6.607,12.754,1.3,20.431.121,23.316a1.6,1.6,0,0,0,2.954,1.211,13.107,13.107,0,0,1,3.582-4.514,9.544,9.544,0,0,0,8.714,3.846C23.193,23.291,28.7,16.276,28.7,7.687a18.117,18.117,0,0,0-1.485-7.2Z" transform="translate(1.178 1.092)" fill="none" stroke="#000" stroke-width="2.18"/>
</svg>
