<svg xmlns="http://www.w3.org/2000/svg" width="35" height="35" viewBox="0 0 35 35">
  <g id="Group_27" data-name="Group 27" transform="translate(-541 -275)">
    <rect id="Area" width="35" height="35" rx="17.5" transform="translate(541 275)" fill="#f2f4f8"/>
    <g id="Icon_feather-trash-2" data-name="Icon feather-trash-2" transform="translate(544.717 278.308)">
      <path id="Path_13" data-name="Path 13" d="M4.5,9H23.065" transform="translate(0 -1.874)" fill="none" stroke="#000" stroke-linecap="round" stroke-linejoin="round" stroke-width="2.18"/>
      <path id="Path_14" data-name="Path 14" d="M21.94,7.126v14.44a2.063,2.063,0,0,1-2.063,2.063H9.563A2.063,2.063,0,0,1,7.5,21.565V7.126m3.094,0V5.063A2.063,2.063,0,0,1,12.657,3h4.126a2.063,2.063,0,0,1,2.063,2.063V7.126" transform="translate(-0.937 0)" fill="none" stroke="#000" stroke-linecap="round" stroke-linejoin="round" stroke-width="2.18"/>
      <path id="Path_15" data-name="Path 15" d="M15,16.5v6.188" transform="translate(-3.28 -4.217)" fill="none" stroke="#000" stroke-linecap="round" stroke-linejoin="round" stroke-width="2.18"/>
      <path id="Path_16" data-name="Path 16" d="M21,16.5v6.188" transform="translate(-5.154 -4.217)" fill="none" stroke="#000" stroke-linecap="round" stroke-linejoin="round" stroke-width="2.18"/>
    </g>
  </g>
</svg>
