<svg xmlns="http://www.w3.org/2000/svg" width="48" height="48" viewBox="0 0 48 48">
  <g id="Group_6" data-name="Group 6" transform="translate(-973 -4565.973)">
    <g id="Circle_Button_SIZE_MEDIUM_STATE_DEFAULT_STYLE_STYLE2_" data-name="Circle Button [SIZE=MEDIUM][STATE=DEFAULT][STYLE=STYLE2]" transform="translate(967 4563.973)">
      <rect id="Area_SIZE:MEDIUM_STATE:DEFAULT_STYLE:STYLE2_" data-name="Area [SIZE:MEDIUM][STATE:DEFAULT][STYLE:STYLE2]" width="48" height="48" rx="24" transform="translate(6 2)" fill="#fff"/>
    </g>
    <path id="Icon_feather-phone" data-name="Icon feather-phone" d="M24.657,19.121v3.241A2.161,2.161,0,0,1,22.3,24.523a21.383,21.383,0,0,1-9.325-3.317,21.07,21.07,0,0,1-6.483-6.483A21.383,21.383,0,0,1,3.177,5.355,2.161,2.161,0,0,1,5.327,3H8.568a2.161,2.161,0,0,1,2.161,1.858,13.873,13.873,0,0,0,.756,3.036A2.161,2.161,0,0,1,11,10.174L9.627,11.547A17.288,17.288,0,0,0,16.11,18.03l1.372-1.372a2.161,2.161,0,0,1,2.28-.486,13.873,13.873,0,0,0,3.036.756,2.161,2.161,0,0,1,1.858,2.193Z" transform="translate(985 4577)" fill="none" stroke="#000" stroke-linecap="round" stroke-linejoin="round" stroke-width="1.82"/>
  </g>
</svg>
