<svg xmlns="http://www.w3.org/2000/svg" width="202.669" height="445.441" viewBox="0 0 202.669 445.441">
  <g id="Group_20" data-name="Group 20" transform="translate(-154.236 -60.346)">
    <g id="Group_12" data-name="Group 12" transform="translate(123 -22)">
      <path id="Path_11" data-name="Path 11" d="M151.309,330.922l7.3-9.732a1.551,1.551,0,0,0,.31-.93c5.347-17.336,5.073-35.177,0-53.448a1.551,1.551,0,0,0-2.948-.671l-5.845,12.171a1.551,1.551,0,0,1-2.878-1.134h0a1.551,1.551,0,0,0,.071-.463c5.247-12.434,3.642-29.077,0-46.972a1.551,1.551,0,0,0-2.995-.565l-19.343,49.433a1.551,1.551,0,0,1-2.54.531l-1.97-1.97a1.54,1.54,0,0,1-.249-1.867c3.2-5.475,17.1-32.9-.383-70.344a1.582,1.582,0,0,0-.721-.742l-11.967-6a1.547,1.547,0,0,0-2.244,1.437c.282,7.276.664,28.164-3.343,43.217a1.552,1.552,0,0,1-3.05-.477c.611-11.76-1.027-30.328-14.5-44.207a1.561,1.561,0,0,0-1.221-.47c-4.251.281-26.42,2.13-39.427,10.79a1.544,1.544,0,0,0-.5,1.975L44.624,214a1.551,1.551,0,0,1-1.763,2.2l-6.071-1.518a1.556,1.556,0,0,0-1.622.581c-2.016,2.685-7.591,11.263-.263,15.631a1.523,1.523,0,0,1,.693,1.569c-1.119,6.624-3.631,42.025,66.071,58.391a1.548,1.548,0,0,1-.385,3.056l-29.931-.73a1.55,1.55,0,0,0-1,2.765c12.065,9.483,51.622,39.179,74.482,39.654a1.558,1.558,0,0,0,.989-.335l5.2-4.043a1.551,1.551,0,0,0,.289-.294h0Z" fill="#9ea68f"/>
      <path id="Path_12" data-name="Path 12" d="M185.047,527.787l-1.984-.256c.062-.473,5.938-47.971-8.057-109.613C162.1,361.067,129.16,280.2,45.534,217.814l1.2-1.6c37.152,27.717,67.544,61.344,90.331,99.948a352.31,352.31,0,0,1,39.912,101.393c14.056,61.973,8.134,109.761,8.073,110.236Z" fill="#e6e6e6"/>
    </g>
    <g id="Group_13" data-name="Group 13">
      <path id="Path_13" data-name="Path 13" d="M329.922,211.471l9.909-7.058a1.551,1.551,0,0,0,.578-.792c10.356-14.9,15.509-31.978,16.22-50.928a1.551,1.551,0,0,0-2.606-1.534l-9.263,9.823a1.551,1.551,0,0,1-2.4-1.954h0a1.55,1.55,0,0,0,.208-.419c8.773-10.256,12.294-26.6,14.255-44.757a1.551,1.551,0,0,0-2.682-1.447L320.71,153.635a1.551,1.551,0,0,1-2.582-.265l-1.279-2.475a1.54,1.54,0,0,1,.33-1.855c4.709-4.246,26.273-26.159,20.983-67.143a1.582,1.582,0,0,0-.462-.926l-9.583-9.347a1.547,1.547,0,0,0-2.575.688c-1.939,7.019-7.915,27.037-16.3,40.165a1.552,1.552,0,0,1-2.761-1.38c4.152-11.02,8.225-29.209-.4-46.521a1.561,1.561,0,0,0-1.021-.819c-4.135-1.022-25.82-5.988-40.842-1.684a1.544,1.544,0,0,0-1.078,1.729l.607,3.88a1.551,1.551,0,0,1-2.347,1.559l-5.324-3.288a1.556,1.556,0,0,0-1.722.061c-2.736,1.947-10.651,8.428-4.994,14.814a1.523,1.523,0,0,1,.184,1.706c-3.076,5.972-16.213,38.941,45.235,75.688a1.548,1.548,0,0,1-1.294,2.8l-28.3-9.779a1.55,1.55,0,0,0-1.793,2.331c8.618,12.7,37.3,53,58.935,60.387a1.558,1.558,0,0,0,1.044-.02l6.18-2.275a1.551,1.551,0,0,0,.364-.192Z" fill="#f2f2f2"/>
      <path id="Path_14" data-name="Path 14" d="M302.323,409.291l-1.812-.846c.2-.432,20.216-43.907,25.588-106.889,4.955-58.087-1.89-145.136-62.639-229.96l1.627-1.164c26.988,37.685,45.742,78.95,55.739,122.648A352.341,352.341,0,0,1,328.085,301.8c-5.414,63.315-25.559,107.053-25.762,107.487Z" fill="#e6e6e6"/>
    </g>
  </g>
</svg>
