<svg xmlns="http://www.w3.org/2000/svg" width="240.645" height="309.172" viewBox="0 0 240.645 309.172">
  <g id="Group_11" data-name="Group 11" transform="translate(0 0)">
    <path id="Path_3" data-name="Path 3" d="M208.927,322.863c0-39.749,32.223-134.072,71.972-134.072s71.972,94.323,71.972,134.072a71.972,71.972,0,1,1-143.944,0Z" transform="translate(-208.927 -188.791)" fill="#9ea68f"/>
    <path id="Path_4" data-name="Path 4" d="M330.133,539.245a.592.592,0,0,1-.592-.592V290.517a.592.592,0,0,1,1.184,0V538.653A.592.592,0,0,1,330.133,539.245Z" transform="translate(-258.161 -230.073)" fill="#3f3d56"/>
    <path id="Path_5" data-name="Path 5" d="M310.485,351.407a.59.59,0,0,1-.418-.173L281.58,322.747a.592.592,0,0,1,.837-.837L310.9,350.4a.592.592,0,0,1-.419,1.01Z" transform="translate(-238.513 -243.058)" fill="#3f3d56"/>
    <path id="Path_6" data-name="Path 6" d="M330.133,421.48a.592.592,0,0,1-.419-1.01l47.706-47.706a.592.592,0,1,1,.837.837l-47.706,47.706a.59.59,0,0,1-.419.173Z" transform="translate(-258.161 -263.816)" fill="#3f3d56"/>
    <path id="Path_7" data-name="Path 7" d="M440.656,430.632c0-28.563,23.17-96.341,51.753-96.341s51.753,67.778,51.753,96.341a51.753,51.753,0,1,1-103.505,0Z" transform="translate(-303.517 -248.183)" fill="#e6e6e6"/>
    <path id="Path_8" data-name="Path 8" d="M527.81,586.12a.425.425,0,0,1-.426-.425V407.388a.426.426,0,0,1,.851,0V585.694a.425.425,0,0,1-.426.425Z" transform="translate(-338.919 -277.847)" fill="#3f3d56"/>
    <path id="Path_9" data-name="Path 9" d="M513.682,451.143a.424.424,0,0,1-.3-.125L492.9,430.548a.425.425,0,1,1,.6-.6l20.484,20.47a.425.425,0,0,1-.3.726Z" transform="translate(-324.791 -287.178)" fill="#3f3d56"/>
    <path id="Path_10" data-name="Path 10" d="M527.811,501.5a.425.425,0,0,1-.3-.726l34.3-34.281a.425.425,0,0,1,.6.6l-34.3,34.28A.424.424,0,0,1,527.811,501.5Z" transform="translate(-338.919 -302.094)" fill="#3f3d56"/>
  </g>
</svg>
